# File created by Blade
# Date/Time:  Tue Jan 27 18:55:50 2015
# Frame Rate: 120.000 fps
#------------------------------------------------------
:FULLY-SPECIFIED
:DEGREES
3177
root -2.622942 32.568840 -5.799709 46.193675 -27.193183 -25.475798
Spine -0.130539 13.908114 -1.231166
Head -11.441726 17.548123 7.691797
LeftShoulder -19.004480 21.113002 16.103624
LeftArm -8.493953 -50.884319 -68.005808
LeftForeArm -24.653055 -0.000000 123.649519
LeftHand -12.948909 -0.000000 35.224592
LeftHandThumb1 -26.253704 0.000000 33.147579
RightShoulder 0.636537 13.935832 -6.935229
RightArm 26.548142 -45.105838 77.035968
RightForeArm -33.375095 -0.000000 29.878984
RightHand -15.944598 0.000000 8.043256
RightHandThumb1 -24.326973 -0.000000 -32.862282
LeftUpLeg -41.903951 8.836372 10.851142
LeftLeg 24.826523 -0.000000 -0.000000
LeftFoot -31.998021 25.452311 -23.932936
LeftToeBase 10.611324 -0.000000 -0.000000
RightUpLeg 1.875046 -30.538356 -17.382771
RightLeg 98.450574 -0.000000 -0.000000
RightFoot -15.476850 0.229951 38.547259
RightToeBase 12.258131 -0.000000 -0.000000
3178
root -2.635282 32.572833 -5.778791 46.153580 -27.276617 -25.637881
Spine -0.182798 13.916414 -1.186380
Head -11.402005 17.685601 7.562691
LeftShoulder -19.056105 21.103653 16.075229
LeftArm -8.813685 -50.948354 -67.939698
LeftForeArm -24.558298 -0.000000 123.748264
LeftHand -12.943320 -0.000000 35.084244
LeftHandThumb1 -26.253704 0.000000 33.147579
RightShoulder 0.530573 13.980360 -6.942998
RightArm 26.519734 -45.095160 77.217454
RightForeArm -33.310546 -0.000000 29.973726
RightHand -16.201803 0.000000 7.815214
RightHandThumb1 -24.326973 -0.000000 -32.862282
LeftUpLeg -41.699884 8.950148 10.915569
LeftLeg 24.807346 -0.000000 -0.000000
LeftFoot -32.060617 25.548562 -23.914735
LeftToeBase 10.594445 -0.000000 -0.000000
RightUpLeg 1.846128 -30.528829 -17.209485
RightLeg 97.426114 -0.000000 -0.000000
RightFoot -15.622303 0.095894 38.566739
RightToeBase 12.272817 -0.000000 -0.000000
3179
root -2.645299 32.578659 -5.761986 46.144283 -27.359271 -25.798485
Spine -0.252732 13.915294 -1.158475
Head -11.396488 17.775594 7.468806
LeftShoulder -19.164901 21.218298 16.038403
LeftArm -8.818603 -50.968732 -68.143429
LeftForeArm -24.202154 -0.000000 123.837966
LeftHand -13.207944 0.000000 35.352034
LeftHandThumb1 -26.253704 0.000000 33.147579
RightShoulder 0.497312 13.992677 -6.939903
RightArm 26.462297 -44.933755 77.441302
RightForeArm -33.147815 0.000000 30.067122
RightHand -15.945349 -0.000000 7.997954
RightHandThumb1 -24.326973 -0.000000 -32.862282
LeftUpLeg -41.518684 9.022532 10.989459
LeftLeg 24.748204 -0.000000 -0.000000
LeftFoot -32.104287 25.765823 -23.829918
LeftToeBase 10.619610 -0.000000 -0.000000
RightUpLeg 1.767425 -30.478414 -16.999962
RightLeg 96.557792 -0.000000 -0.000000
RightFoot -15.541071 0.000837 38.483963
RightToeBase 11.143878 -0.000000 -0.000000
3180
root -2.651130 32.584283 -5.747502 46.163144 -27.455721 -25.940471
Spine -0.347866 13.897179 -1.148113
Head -11.421961 17.876793 7.337562
LeftShoulder -19.218089 21.272678 15.986231
LeftArm -9.036426 -51.115881 -68.129707
LeftForeArm -24.202098 -0.000000 123.886887
LeftHand -13.172764 -0.000000 35.338095
LeftHandThumb1 -26.253704 0.000000 33.147579
RightShoulder 0.474639 14.087192 -6.968493
RightArm 26.296479 -44.806346 77.752487
RightForeArm -33.198579 -0.000000 30.224217
RightHand -16.046788 -0.000000 7.894573
RightHandThumb1 -24.326973 -0.000000 -32.862282
LeftUpLeg -41.367041 9.068746 11.032044
LeftLeg 24.640516 -0.000000 -0.000000
LeftFoot -32.106405 26.136218 -23.649712
LeftToeBase 10.616938 -0.000000 -0.000000
RightUpLeg 1.630267 -30.386175 -16.808096
RightLeg 95.879902 -0.000000 -0.000000
RightFoot -15.331014 0.096083 38.714176
RightToeBase 12.259038 -0.000000 -0.000000
3181
root -2.654628 32.590681 -5.736276 46.208754 -27.547111 -26.081907
Spine -0.430317 13.893328 -1.135505
Head -11.533753 18.017710 7.213197
LeftShoulder -19.291941 21.273381 15.894783
LeftArm -9.280690 -51.299736 -68.033192
LeftForeArm -24.234547 -0.000000 123.914086
LeftHand -13.168457 -0.000000 35.257647
LeftHandThumb1 -26.253704 0.000000 33.147579
RightShoulder 0.424953 14.181985 -6.992681
RightArm 26.182966 -44.674897 78.015601
RightForeArm -32.987773 0.000000 30.381078
RightHand -15.947450 -0.000000 7.869095
RightHandThumb1 -24.326973 -0.000000 -32.862282
LeftUpLeg -41.229476 9.054377 11.124699
LeftLeg 24.525204 -0.000000 -0.000000
LeftFoot -32.138499 26.451246 -23.571981
LeftToeBase 10.647517 -0.000000 -0.000000
RightUpLeg 1.452171 -30.250429 -16.605482
RightLeg 95.369413 -0.000000 -0.000000
RightFoot -14.933591 0.186845 38.914062
RightToeBase 12.436615 -0.000000 -0.000000
3182
root -2.656653 32.596005 -5.726577 46.254328 -27.627446 -26.184698
Spine -0.527653 13.870557 -1.155680
Head -11.673245 18.068240 7.090619
LeftShoulder -19.358449 21.306447 15.831737
LeftArm -9.423265 -51.478192 -68.063273
LeftForeArm -24.194603 -0.000000 123.952132
LeftHand -13.172463 -0.000000 35.374798
LeftHandThumb1 -26.253704 0.000000 33.147579
RightShoulder 0.358717 14.248670 -7.014498
RightArm 26.113487 -44.569792 78.220386
RightForeArm -32.974428 0.000000 30.606240
RightHand -16.086662 -0.000000 7.555778
RightHandThumb1 -24.326973 -0.000000 -32.862282
LeftUpLeg -41.101976 8.976917 11.218851
LeftLeg 24.386727 -0.000000 -0.000000
LeftFoot -32.174714 26.767541 -23.504297
LeftToeBase 10.689673 -0.000000 -0.000000
RightUpLeg 1.278258 -30.095929 -16.424262
RightLeg 95.024948 -0.000000 -0.000000
RightFoot -14.625091 0.404239 39.121675
RightToeBase 12.643522 -0.000000 -0.000000
3183
root -2.655176 32.599189 -5.717389 46.262769 -27.713755 -26.238853
Spine -0.608126 13.802713 -1.198041
Head -11.751657 18.157101 6.996830
LeftShoulder -19.417357 21.322104 15.749536
LeftArm -9.613853 -51.698342 -68.009170
LeftForeArm -24.233185 -0.000000 123.982016
LeftHand -13.154932 -0.000000 35.353139
LeftHandThumb1 -26.253704 0.000000 33.147579
RightShoulder 0.391979 14.259862 -6.995648
RightArm 26.118587 -44.448775 78.304168
RightForeArm -32.958738 -0.000000 30.881385
RightHand -16.090305 0.000000 7.580617
RightHandThumb1 -24.326973 -0.000000 -32.862282
LeftUpLeg -40.963961 8.865707 11.284199
LeftLeg 24.245359 -0.000000 -0.000000
LeftFoot -32.216234 27.038693 -23.485169
LeftToeBase 10.763536 -0.000000 -0.000000
RightUpLeg 1.158091 -29.970684 -16.338027
RightLeg 94.836623 -0.000000 -0.000000
RightFoot -14.434348 0.622147 39.158307
RightToeBase 12.410161 -0.000000 -0.000000
3184
root -2.655091 32.601391 -5.709882 46.274501 -27.769580 -26.273123
Spine -0.683085 13.791658 -1.245795
Head -11.921254 18.182695 6.887101
LeftShoulder -19.443396 21.296366 15.691306
LeftArm -9.739957 -51.901745 -67.946166
LeftForeArm -24.249697 -0.000000 123.994686
LeftHand -13.276754 -0.000000 35.308823
LeftHandThumb1 -26.253704 0.000000 33.147579
RightShoulder 0.324088 14.253889 -6.996324
RightArm 26.161250 -44.325478 78.351787
RightForeArm -32.852014 -0.000000 31.144880
RightHand -16.127647 -0.000000 7.363069
RightHandThumb1 -24.326973 -0.000000 -32.862282
LeftUpLeg -40.857392 8.748692 11.350844
LeftLeg 24.117465 -0.000000 -0.000000
LeftFoot -32.270631 27.266273 -23.496148
LeftToeBase 10.821519 -0.000000 -0.000000
RightUpLeg 1.065687 -29.861288 -16.256230
RightLeg 94.774067 -0.000000 -0.000000
RightFoot -14.353255 0.812929 39.300703
RightToeBase 12.369847 -0.000000 -0.000000
3185
root -2.651800 32.603478 -5.705591 46.286784 -27.799166 -26.267240
Spine -0.762991 13.740541 -1.296360
Head -12.054281 18.215490 6.809510
LeftShoulder -19.469198 21.266975 15.629818
LeftArm -9.833085 -52.091514 -67.886660
LeftForeArm -24.346272 0.000000 123.975207
LeftHand -13.288125 0.000000 35.332779
LeftHandThumb1 -26.253704 0.000000 33.147579
RightShoulder 0.308677 14.318345 -7.013807
RightArm 26.107399 -44.195883 78.463641
RightForeArm -32.758699 -0.000000 31.424363
RightHand -16.137565 -0.000000 7.284429
RightHandThumb1 -24.326973 -0.000000 -32.862282
LeftUpLeg -40.801970 8.640765 11.385578
LeftLeg 24.010293 -0.000000 -0.000000
LeftFoot -32.291296 27.397279 -23.535416
LeftToeBase 10.828261 -0.000000 -0.000000
RightUpLeg 0.972653 -29.807633 -16.202900
RightLeg 94.866559 -0.000000 -0.000000
RightFoot -14.234324 0.866152 39.014509
RightToeBase 11.898975 -0.000000 -0.000000
3186
root -2.649736 32.604867 -5.702221 46.268330 -27.802955 -26.221600
Spine -0.817164 13.686236 -1.353671
Head -12.198236 18.223375 6.739644
LeftShoulder -19.482803 21.234049 15.559647
LeftArm -9.836625 -52.281255 -67.862961
LeftForeArm -24.422825 -0.000000 123.930298
LeftHand -13.214854 -0.000000 35.305242
LeftHandThumb1 -26.253704 0.000000 33.147579
RightShoulder 0.298004 14.388267 -7.019160
RightArm 26.017742 -44.043647 78.573035
RightForeArm -32.672513 -0.000000 31.751726
RightHand -16.056970 -0.000000 7.185340
RightHandThumb1 -24.326973 -0.000000 -32.862282
LeftUpLeg -40.745749 8.519418 11.409026
LeftLeg 23.900504 -0.000000 -0.000000
LeftFoot -32.290136 27.472452 -23.599562
LeftToeBase 10.780964 -0.000000 -0.000000
RightUpLeg 0.948132 -29.777339 -16.198116
RightLeg 95.066136 -0.000000 -0.000000
RightFoot -14.193493 0.820526 38.813959
RightToeBase 11.572862 -0.000000 -0.000000
